<?xml version="1.0" encoding="utf-8"?>
<svg width="480px" height="139px" viewbox="0 0 480 139" version="1.1" xmlns:xlink="http://www.w3.org/1999/xlink" xmlns="http://www.w3.org/2000/svg">
  <defs>
    <path d="M0 0L480 0L480 139L0 139L0 0Z" id="path_1" />
    <clipPath id="mask_1">
      <use xlink:href="#path_1" />
    </clipPath>
  </defs>
  <g id="logo">
    <path d="M0 0L480 0L480 139L0 139L0 0Z" id="Background" fill="none" fill-rule="evenodd" stroke="none" />
    <g clip-path="url(#mask_1)">
      <path d="M449.07 0L439.45 17.24L431.09 32.2L370.93 140L0 140L0 0L449.07 0Z" transform="translate(-1 -1)" id="Shape" fill="#000000" fill-rule="evenodd" stroke="none" />
      <path d="M0 0L479.92 0L479.92 1L0 1L0 0Z" transform="translate(-1 139)" id="Shape" fill="none" fill-rule="evenodd" stroke="none" />
      <g fill="#FFFFFF" stroke="none" id="Arc" transform="translate(261.994 8.233002)">
        <path d="M36.126 57.9556L30.9492 57.9556L26.7188 46.7671L9.79688 46.7671L5.81689 57.9556L0.612305 57.9556L15.9199 18.0444L20.7627 18.0444L36.126 57.9556ZM25.188 42.5645L18.9258 25.5591Q18.6196 24.7241 18.3135 22.8872L18.2021 22.8872Q17.9238 24.585 17.562 25.5591L11.3555 42.5645L25.188 42.5645ZM72.8364 58.6235Q77.3452 58.6235 80.6294 56.6475L80.6294 52.3057Q77.3452 54.7827 73.6157 54.7827Q69.1904 54.7827 66.5603 51.8882Q63.9302 48.9937 63.9302 43.9839Q63.9302 38.8906 66.7273 35.7595Q69.5244 32.6284 73.894 32.6284Q77.5122 32.6284 80.6851 34.855L80.6851 30.1792Q77.8184 28.7876 74.061 28.7876Q67.3257 28.7876 63.29 33.0598Q59.2544 37.332 59.2544 44.3735Q59.2544 50.6914 62.9978 54.6575Q66.7412 58.6235 72.8364 58.6235ZM56.2485 34.0757Q55.0518 33.1572 52.7974 33.1572Q49.875 33.1572 47.9128 35.9126Q45.9507 38.668 45.9507 43.4272L45.9507 57.9556L41.3862 57.9556L41.3862 29.4556L45.9507 29.4556L45.9507 35.3281L46.062 35.3281Q47.0361 32.3223 49.04 30.6384Q51.0439 28.9546 53.521 28.9546Q55.3022 28.9546 56.2485 29.3442L56.2485 34.0757Z" />
      </g>
      <g fill="#FFFFFF" stroke="none" id="Development" transform="translate(24.792007 59)">
        <path d="M124.585 54.9053L128.909 54.9053L128.909 14.9326L124.585 14.9326L124.585 54.9053ZM4.95703 54.9053L4.95703 17.0947L15.3984 17.0947Q35.3848 17.0947 35.3848 35.5254Q35.3848 44.2793 29.8345 49.5923Q24.2842 54.9053 14.9766 54.9053L4.95703 54.9053ZM314.851 55.4854Q317.355 55.4854 318.885 54.6416L318.885 50.9502Q317.698 51.8467 316.063 51.8467Q313.928 51.8467 313.005 50.6865Q312.082 49.5264 312.082 46.8105L312.082 31.5967L318.885 31.5967L318.885 27.9053L312.082 27.9053L312.082 19.916L307.758 21.3135L307.758 27.9053L303.117 27.9053L303.117 31.5967L307.758 31.5967L307.758 47.5752Q307.758 55.4854 314.851 55.4854ZM9.38672 21.1025L9.38672 50.8975L15.0293 50.8975Q22.4648 50.8975 26.6045 46.916Q30.7441 42.9346 30.7441 35.6309Q30.7441 21.1025 15.293 21.1025L9.38672 21.1025ZM63.9404 42.4863L44.877 42.4863Q44.9824 46.9951 47.3027 49.4473Q49.623 51.8994 53.6836 51.8994Q58.2451 51.8994 62.0684 48.8936L62.0684 52.9541Q58.5088 55.5381 52.6553 55.5381Q46.9336 55.5381 43.6641 51.8599Q40.3945 48.1816 40.3945 41.5107Q40.3945 35.209 43.9673 31.2407Q47.54 27.2725 52.8398 27.2725Q58.1396 27.2725 61.04 30.7002Q63.9404 34.1279 63.9404 40.2188L63.9404 42.4863ZM118.046 42.4863L98.9824 42.4863Q99.0879 46.9951 101.408 49.4473Q103.729 51.8994 107.789 51.8994Q112.351 51.8994 116.174 48.8936L116.174 52.9541Q112.614 55.5381 106.761 55.5381Q101.039 55.5381 97.7695 51.8599Q94.5 48.1816 94.5 41.5107Q94.5 35.209 98.0728 31.2407Q101.646 27.2725 106.945 27.2725Q112.245 27.2725 115.146 30.7002Q118.046 34.1279 118.046 40.2188L118.046 42.4863ZM148.948 55.5381Q142.963 55.5381 139.39 51.7544Q135.817 47.9707 135.817 41.7217Q135.817 34.9189 139.535 31.0957Q143.253 27.2725 149.581 27.2725Q155.619 27.2725 159.007 30.9902Q162.396 34.708 162.396 41.2998Q162.396 47.7598 158.744 51.6489Q155.092 55.5381 148.948 55.5381ZM173.628 51.0029L173.733 51.0029Q176.581 55.5381 181.828 55.5381Q187.55 55.5381 190.846 51.4644Q194.142 47.3906 194.142 40.6143Q194.142 34.5234 191.215 30.8979Q188.288 27.2725 183.067 27.2725Q176.924 27.2725 173.733 32.6514L173.628 32.6514L173.628 27.9053L169.304 27.9053L169.304 67.3242L173.628 67.3242L173.628 51.0029ZM239.388 54.9053L235.063 54.9053L235.063 39.4014Q235.063 34.9189 233.679 32.915Q232.295 30.9111 229.025 30.9111Q226.257 30.9111 224.319 33.4424Q222.381 35.9736 222.381 39.5068L222.381 54.9053L218.057 54.9053L218.057 38.874Q218.057 30.9111 211.913 30.9111Q209.065 30.9111 207.22 33.2974Q205.374 35.6836 205.374 39.5068L205.374 54.9053L201.05 54.9053L201.05 27.9053L205.374 27.9053L205.374 32.1768L205.479 32.1768Q208.354 27.2725 213.864 27.2725Q216.633 27.2725 218.689 28.8149Q220.746 30.3574 221.511 32.8623Q224.517 27.2725 230.476 27.2725Q239.388 27.2725 239.388 38.2676L239.388 54.9053ZM250.198 42.4863L269.262 42.4863L269.262 40.2188Q269.262 34.1279 266.361 30.7002Q263.461 27.2725 258.161 27.2725Q252.861 27.2725 249.289 31.2407Q245.716 35.209 245.716 41.5107Q245.716 48.1816 248.985 51.8599Q252.255 55.5381 257.977 55.5381Q263.83 55.5381 267.39 52.9541L267.39 48.8936Q263.566 51.8994 259.005 51.8994Q254.944 51.8994 252.624 49.4473Q250.304 46.9951 250.198 42.4863ZM298.213 54.9053L293.889 54.9053L293.889 39.5068Q293.889 30.9111 287.613 30.9111Q284.37 30.9111 282.248 33.3501Q280.125 35.7891 280.125 39.5068L280.125 54.9053L275.801 54.9053L275.801 27.9053L280.125 27.9053L280.125 32.3877L280.23 32.3877Q283.289 27.2725 289.09 27.2725Q293.52 27.2725 295.866 30.1333Q298.213 32.9941 298.213 38.3994L298.213 54.9053ZM80.9473 54.9053L91.7051 27.9053L87.1436 27.9053L79.9717 47.6279Q79.3916 49.2627 79.1279 51.293L79.0225 51.293Q78.8379 49.6846 78.0732 47.5225L71.2178 27.9053L66.4717 27.9053L76.7021 54.9053L80.9473 54.9053ZM59.5107 38.8213Q59.4844 35.0771 57.7046 32.9941Q55.9248 30.9111 52.7607 30.9111Q49.7021 30.9111 47.5664 33.0996Q45.4307 35.2881 44.9297 38.8213L59.5107 38.8213ZM113.616 38.8213Q113.59 35.0771 111.81 32.9941Q110.03 30.9111 106.866 30.9111Q103.808 30.9111 101.672 33.0996Q99.5361 35.2881 99.0352 38.8213L113.616 38.8213ZM149.265 30.9111Q145.099 30.9111 142.673 33.7456Q140.247 36.5801 140.247 41.5635Q140.247 46.3623 142.699 49.1309Q145.151 51.8994 149.265 51.8994Q153.457 51.8994 155.711 49.1836Q157.966 46.4678 157.966 41.458Q157.966 36.3955 155.711 33.6533Q153.457 30.9111 149.265 30.9111ZM173.628 43.8838L173.628 40.1133Q173.628 36.1582 175.922 33.5347Q178.216 30.9111 181.986 30.9111Q185.546 30.9111 187.629 33.4688Q189.712 36.0264 189.712 40.5352Q189.712 45.8877 187.484 48.8936Q185.256 51.8994 181.327 51.8994Q177.979 51.8994 175.803 49.5659Q173.628 47.2324 173.628 43.8838ZM263.026 32.9941Q264.806 35.0771 264.832 38.8213L250.251 38.8213Q250.752 35.2881 252.888 33.0996Q255.023 30.9111 258.082 30.9111Q261.246 30.9111 263.026 32.9941Z" />
      </g>
      <path d="M20.44 100.19L68.09 14.96L76.45 0M7.82999 122.76L7.81998 122.77L0 136.76" transform="translate(362 16.239998)" id="Shape" fill="none" fill-rule="evenodd" stroke="none" />
      <path d="M76.87 2.75999L20.45 103.67C7.93002 92.84 0 76.85 0 59C0 26.42 26.42 0 59 0C65.23 0 71.24 0.97 76.87 2.76L76.87 2.75999Z" transform="translate(361.89 13.000008)" id="Shape" fill="#0B72B9" fill-rule="evenodd" stroke="none" />
      <path d="M97.55 56.24C97.55 88.82 71.13 115.24 38.55 115.24C23.82 115.24 10.34 109.84 0 100.91L56.42 0C80.27 7.57 97.55 29.89 97.55 56.24L97.55 56.24Z" transform="translate(382.34003 15.7599945)" id="Shape" fill="#000000" fill-rule="evenodd" stroke="none" />
      <g id="Group_186" transform="translate(390.16296 25.812996)">
        <g id="Group_185">
          <g id="Words">
            <path d="M45.04 5.72205e-06L44.95 80.38L37.28 80.37L37.34 28.12L7.94 80.33L0 80.32L45.04 0L45.04 5.72205e-06Z" id="Path_59" fill="#FFFFFF" fill-rule="evenodd" stroke="none" />
          </g>
        </g>
      </g>
      <path d="M96 0L87.07 16L77.45 33.24L69.09 48.2L8.92999 156L8.91998 156.01L0 172" transform="translate(361 -17)" id="Shape" fill="none" fill-rule="evenodd" stroke="none" />
    </g>
  </g>
</svg>