<?xml version="1.0" encoding="utf-8"?>
<svg width="480px" height="139px" viewbox="0 0 480 139" version="1.1" xmlns:xlink="http://www.w3.org/1999/xlink" xmlns="http://www.w3.org/2000/svg">
  <defs>
    <path d="M0 0L480 0L480 139L0 139L0 0Z" id="path_1" />
    <clipPath id="mask_1">
      <use xlink:href="#path_1" />
    </clipPath>
  </defs>
  <g id="logo">
    <path d="M0 0L480 0L480 139L0 139L0 0Z" id="Background" fill="none" fill-rule="evenodd" stroke="none" />
    <g clip-path="url(#mask_1)">
      <path d="M449.07 0L439.45 17.24L431.09 32.2L370.93 140L0 140L0 0L449.07 0Z" transform="translate(-1 -1)" id="Shape" fill="#000000" fill-rule="evenodd" stroke="none" />
      <path d="M0 0L479.92 0L479.92 1L0 1L0 0Z" transform="translate(-1 139)" id="Shape" fill="none" fill-rule="evenodd" stroke="none" />
      <g fill="#FFFFFF" stroke="none" id="Arc" transform="translate(261.994 8.233002)">
        <path d="M18.696 13.265L19.722 13.265L37.335 53.735L36.081 53.735L29.7878 39.257L8.59453 39.257L2.28 53.735L1.026 53.735L18.696 13.265ZM29.2927 38.117L19.209 14.918L9.09239 38.117L29.2927 38.117ZM68.2575 53.0795Q70.851 54.305 73.758 54.305Q76.323 54.305 78.6885 53.393Q81.054 52.481 82.821 50.885Q84.588 49.289 85.215 47.294L84.075 46.952Q83.619 48.548 81.9945 49.973Q80.37 51.398 78.147 52.2815Q75.924 53.165 73.587 53.165Q70.053 53.165 67.089 51.1985Q64.125 49.232 62.358 45.9545Q60.591 42.677 60.591 38.801Q60.591 34.868 62.3295 31.7045Q64.068 28.541 67.0035 26.6885Q69.939 24.836 73.53 24.836Q76.779 24.836 79.515 26.4035Q82.251 27.971 83.676 30.707L84.816 30.308Q83.334 27.173 80.37 25.4345Q77.406 23.696 73.701 23.696Q69.711 23.696 66.462 25.691Q63.213 27.686 61.332 31.106Q59.451 34.526 59.451 38.801Q59.451 41.993 60.5625 44.786Q61.674 47.579 63.669 49.7165Q65.664 51.854 68.2575 53.0795ZM55.86 25.292Q51.699 25.463 48.621 28.0565Q45.543 30.65 44.346 35.039L44.346 53.735L43.206 53.735L43.206 24.152L44.346 24.152L44.346 31.79Q45.885 28.655 48.4785 26.6315Q51.072 24.608 53.979 24.266Q54.549 24.209 55.0335 24.1805Q55.518 24.152 55.86 24.152L55.86 25.292Z" />
      </g>
      <g fill="#FFFFFF" stroke="none" id="Development" transform="translate(17.692001 58.015)">
        <path d="M134.622 11.25L133.542 11.25L133.542 46.7516Q133.542 48.7631 134.73 49.9866Q135.918 51.21 137.808 51.21Q138.564 51.21 139.698 50.994Q140.832 50.778 141.534 50.562L141.156 49.698Q140.454 49.914 139.617 50.049Q138.78 50.184 138.186 50.184Q136.566 50.184 135.594 49.2597Q134.622 48.3353 134.622 46.7584L134.622 11.25ZM5.346 50.67L5.346 12.33L17.658 12.33Q23.706 12.33 27.675 14.895Q31.644 17.46 33.642 21.807Q35.64 26.154 35.64 31.446Q35.64 37.278 33.453 41.598Q31.266 45.918 27.216 48.294Q23.166 50.67 17.658 50.67L5.346 50.67ZM331.155 50.049L331.83 49.644L331.236 48.78Q331.182 48.834 329.886 49.482Q328.59 50.13 326.7 50.13Q325.296 50.13 324.162 49.2846Q323.028 48.4391 322.92 46.8562L322.92 23.724L329.67 23.724L329.67 22.644L322.92 22.644L322.92 12.87L321.84 12.87L321.84 22.644L317.79 22.644L317.79 23.724L321.84 23.724L321.84 46.847Q321.84 48.1556 322.515 49.1373Q323.19 50.119 324.297 50.6645Q325.404 51.21 326.7 51.21Q328.212 51.21 329.346 50.832Q330.48 50.454 331.155 50.049ZM34.56 31.446Q34.56 26.208 32.589 22.131Q30.618 18.054 26.865 15.732Q23.112 13.41 17.658 13.41L6.426 13.41L6.426 49.59L17.658 49.59Q23.22 49.59 26.973 47.214Q30.726 44.838 32.643 40.707Q34.56 36.576 34.56 31.446ZM54.378 51.21Q51.624 51.21 49.167 50.049Q46.71 48.888 44.847 46.863Q42.984 44.838 41.931 42.165Q40.878 39.492 40.878 36.468Q40.878 32.526 42.66 29.286Q44.442 26.046 47.439 24.129Q50.436 22.212 54.108 22.212Q57.834 22.212 60.885 24.156Q63.936 26.1 65.772 29.367Q67.608 32.634 67.608 36.684L67.608 37.278L41.958 37.278Q42.228 40.896 43.956 43.812Q45.684 46.728 48.438 48.429Q51.192 50.13 54.432 50.13Q57.672 50.13 60.48 48.483Q63.288 46.836 64.476 44.244L65.502 44.514Q64.746 46.404 63.045 47.943Q61.344 49.482 59.076 50.346Q56.808 51.21 54.378 51.21ZM113.562 51.21Q110.808 51.21 108.351 50.049Q105.894 48.888 104.031 46.863Q102.168 44.838 101.115 42.165Q100.062 39.492 100.062 36.468Q100.062 32.526 101.844 29.286Q103.626 26.046 106.623 24.129Q109.62 22.212 113.292 22.212Q117.018 22.212 120.069 24.156Q123.12 26.1 124.956 29.367Q126.792 32.634 126.792 36.684L126.792 37.278L101.142 37.278Q101.412 40.896 103.14 43.812Q104.868 46.728 107.622 48.429Q110.376 50.13 113.616 50.13Q116.856 50.13 119.664 48.483Q122.472 46.836 123.66 44.244L124.686 44.514Q123.93 46.404 122.229 47.943Q120.528 49.482 118.26 50.346Q115.992 51.21 113.562 51.21ZM157.356 51.21Q154.602 51.21 152.172 50.076Q149.742 48.942 147.906 46.917Q146.07 44.892 145.044 42.273Q144.018 39.654 144.018 36.738Q144.018 33.768 145.071 31.149Q146.124 28.53 147.96 26.505Q149.796 24.48 152.226 23.346Q154.656 22.212 157.356 22.212Q160.056 22.212 162.486 23.346Q164.916 24.48 166.752 26.505Q168.588 28.53 169.641 31.149Q170.694 33.768 170.694 36.738Q170.694 39.654 169.668 42.273Q168.642 44.892 166.779 46.917Q164.916 48.942 162.513 50.076Q160.11 51.21 157.356 51.21ZM183.573 49.131Q186.516 51.21 190.242 51.21Q194.184 51.21 197.1 49.185Q200.016 47.16 201.636 43.866Q203.256 40.572 203.256 36.738Q203.256 34.038 202.257 31.446Q201.258 28.854 199.449 26.775Q197.64 24.696 195.183 23.454Q192.726 22.212 189.756 22.212Q186.57 22.212 183.573 23.994Q180.576 25.776 178.794 28.584L178.794 22.644L177.714 22.644L177.714 62.172L178.794 62.172L178.794 44.244Q180.63 47.052 183.573 49.131ZM250.56 50.67L249.48 50.67L249.48 35.064Q249.48 29.07 247.644 26.181Q245.808 23.292 241.974 23.292Q237.978 23.292 235.035 26.019Q232.092 28.746 230.958 33.012L230.958 50.67L229.878 50.67L229.878 35.064Q229.878 28.962 228.069 26.127Q226.26 23.292 222.426 23.292Q218.484 23.292 215.541 25.965Q212.598 28.638 211.356 32.958L211.356 50.67L210.276 50.67L210.276 22.644L211.356 22.644L211.356 29.88Q213.192 26.208 216.054 24.21Q218.916 22.212 222.21 22.212Q225.72 22.212 228.042 24.426Q230.364 26.64 230.742 30.366Q232.848 26.262 235.629 24.237Q238.41 22.212 241.974 22.212Q244.188 22.212 245.781 22.995Q247.374 23.778 248.454 25.371Q249.534 26.964 250.047 29.394Q250.56 31.824 250.56 35.064L250.56 50.67ZM265.545 50.049Q268.002 51.21 270.756 51.21Q273.186 51.21 275.454 50.346Q277.722 49.482 279.423 47.943Q281.124 46.404 281.88 44.514L280.854 44.244Q279.666 46.836 276.858 48.483Q274.05 50.13 270.81 50.13Q267.57 50.13 264.816 48.429Q262.062 46.728 260.334 43.812Q258.606 40.896 258.336 37.278L283.986 37.278L283.986 36.684Q283.986 32.634 282.15 29.367Q280.314 26.1 277.263 24.156Q274.212 22.212 270.486 22.212Q266.814 22.212 263.817 24.129Q260.82 26.046 259.038 29.286Q257.256 32.526 257.256 36.468Q257.256 39.492 258.309 42.165Q259.362 44.838 261.225 46.863Q263.088 48.888 265.545 50.049ZM312.174 50.67L311.094 50.67L311.094 35.064Q311.094 28.962 309.393 26.127Q307.692 23.292 303.912 23.292Q301.212 23.292 298.647 24.561Q296.082 25.83 294.192 28.017Q292.302 30.204 291.492 32.958L291.492 50.67L290.412 50.67L290.412 22.644L291.492 22.644L291.492 29.88Q292.68 27.612 294.624 25.884Q296.568 24.156 298.971 23.184Q301.374 22.212 303.858 22.212Q306.018 22.212 307.584 22.995Q309.15 23.778 310.176 25.344Q311.202 26.91 311.688 29.34Q312.174 31.77 312.174 35.064L312.174 50.67ZM70.848 22.644L83.052 50.67L84.024 50.67L96.228 22.644L95.04 22.644L83.538 49.104L72.036 22.644L70.848 22.644ZM41.958 36.198L66.474 36.198Q66.258 32.418 64.584 29.529Q62.91 26.64 60.21 24.966Q57.51 23.292 54.162 23.292Q50.868 23.292 48.168 24.966Q45.468 26.64 43.821 29.556Q42.174 32.472 41.958 36.198ZM101.142 36.198L125.658 36.198Q125.442 32.418 123.768 29.529Q122.094 26.64 119.394 24.966Q116.694 23.292 113.346 23.292Q110.052 23.292 107.352 24.966Q104.652 26.64 103.005 29.556Q101.358 32.472 101.142 36.198ZM145.098 36.846Q145.098 40.464 146.745 43.488Q148.392 46.512 151.173 48.321Q153.954 50.13 157.302 50.13Q160.65 50.13 163.458 48.294Q166.266 46.458 167.94 43.38Q169.614 40.302 169.614 36.684Q169.614 33.066 167.94 30.015Q166.266 26.964 163.485 25.128Q160.704 23.292 157.356 23.292Q154.062 23.292 151.254 25.155Q148.446 27.018 146.772 30.096Q145.098 33.174 145.098 36.846ZM195.183 48.996Q192.996 50.13 190.242 50.13Q187.758 50.13 185.517 49.023Q183.276 47.916 181.548 46.08Q179.82 44.244 178.794 41.976L178.794 31.878Q178.902 30.204 179.982 28.665Q181.062 27.126 182.736 25.911Q184.41 24.696 186.273 23.994Q188.136 23.292 189.756 23.292Q192.348 23.292 194.589 24.399Q196.83 25.506 198.558 27.396Q200.286 29.286 201.231 31.689Q202.176 34.092 202.176 36.738Q202.176 39.222 201.339 41.598Q200.502 43.974 198.936 45.918Q197.37 47.862 195.183 48.996ZM282.852 36.198L258.336 36.198Q258.552 32.472 260.199 29.556Q261.846 26.64 264.546 24.966Q267.246 23.292 270.54 23.292Q273.888 23.292 276.588 24.966Q279.288 26.64 280.962 29.529Q282.636 32.418 282.852 36.198Z" />
      </g>
      <path d="M20.44 100.19L68.09 14.96L76.45 0M7.82999 122.76L7.81998 122.77L0 136.76" transform="translate(362 16.239998)" id="Shape" fill="none" fill-rule="evenodd" stroke="none" />
      <path d="M76.87 2.75999L20.45 103.67C7.93002 92.84 0 76.85 0 59C0 26.42 26.42 0 59 0C65.23 0 71.24 0.97 76.87 2.76L76.87 2.75999Z" transform="translate(361.89 13.000008)" id="Shape" fill="#0B72B9" fill-rule="evenodd" stroke="none" />
      <path d="M97.55 56.24C97.55 88.82 71.13 115.24 38.55 115.24C23.82 115.24 10.34 109.84 0 100.91L56.42 0C80.27 7.57 97.55 29.89 97.55 56.24L97.55 56.24Z" transform="translate(382.34003 15.7599945)" id="Shape" fill="#000000" fill-rule="evenodd" stroke="none" />
      <g id="Group_186" transform="translate(390.16296 25.812996)">
        <g id="Group_185">
          <g id="Words">
            <path d="M45.04 5.72205e-06L44.95 80.38L37.28 80.37L37.34 28.12L7.94 80.33L0 80.32L45.04 0L45.04 5.72205e-06Z" id="Path_59" fill="#FFFFFF" fill-rule="evenodd" stroke="none" />
          </g>
        </g>
      </g>
      <path d="M96 0L87.07 16L77.45 33.24L69.09 48.2L8.92999 156L8.91998 156.01L0 172" transform="translate(361 -17)" id="Shape" fill="none" fill-rule="evenodd" stroke="none" />
    </g>
  </g>
</svg>